<svg width="44" height="44" viewBox="0 0 44 44" fill="none" xmlns="http://www.w3.org/2000/svg">
<g id="Logo - Ai Assistance">
<g id="Group 48096248">
<path id="Path 11" d="M23.2764 2.87942H23.2763L10.4158 2.87942L10.4157 2.87942C7.82657 2.8819 5.3442 3.91134 3.5132 5.74186C1.6822 7.57238 0.652114 10.0545 0.648948 12.6436V12.6437L0.648948 20.1446L0.648948 20.1447C0.652114 22.7338 1.6822 25.2159 3.5132 27.0464C5.3442 28.8769 7.82657 29.9064 10.4157 29.9088H10.4158H11.3699H11.3703C13.1908 29.9038 14.9942 30.2599 16.6762 30.9564C18.3582 31.6529 19.8854 32.6761 21.1694 33.9667L21.1695 33.9667L22.1743 34.9749L22.1745 34.9751C22.3185 35.119 22.502 35.217 22.7017 35.2568C22.9015 35.2965 23.1085 35.2761 23.2967 35.1981C23.4848 35.1202 23.6457 34.9883 23.7588 34.819C23.872 34.6497 23.9325 34.4506 23.9326 34.247V34.2469V29.8889C26.3815 29.7216 28.6796 28.6391 30.3685 26.8541C32.0836 25.0415 33.0408 22.6418 33.044 20.1464V20.1462V12.6437V12.6436C33.0408 10.0543 32.0106 7.5721 30.1794 5.74156C28.3482 3.91101 25.8656 2.88168 23.2764 2.87942ZM31.7297 20.1443C31.7259 22.2925 30.9046 24.3588 29.4327 25.9234C27.9901 27.4569 26.0285 28.3959 23.9326 28.5596V26.5731C23.9326 26.3991 23.8634 26.2321 23.7404 26.1091C23.6173 25.986 23.4504 25.9168 23.2763 25.9168C23.1022 25.9168 22.9353 25.986 22.8122 26.1091C22.6891 26.2321 22.62 26.3991 22.62 26.5731V33.561L22.098 33.039C20.6923 31.6258 19.0203 30.5055 17.1788 29.7428C15.3373 28.98 13.3628 28.59 11.3696 28.5954H10.4159C8.17491 28.5932 6.02629 27.7022 4.44137 26.1179C2.85645 24.5336 1.96463 22.3854 1.96154 20.1444V12.6439C1.96441 10.4027 2.85613 8.25426 4.44108 6.66978C6.02603 5.0853 8.17476 4.19421 10.4159 4.19201H23.2762C25.5171 4.19443 27.6657 5.08562 29.2504 6.67007C30.8352 8.25453 31.7268 10.4029 31.7297 12.6439V20.1443Z" fill="#08A777" stroke="#08A777" stroke-width="0.241166"/>
<path id="Path 12" d="M9.84745 14.1802H9.8473C9.41212 14.1802 8.98671 14.3092 8.62488 14.551C8.26304 14.7928 7.98102 15.1364 7.81448 15.5385C7.64795 15.9405 7.60438 16.3829 7.68927 16.8098C7.77417 17.2366 7.98373 17.6286 8.29145 17.9364C8.59917 18.2441 8.99122 18.4536 9.41804 18.5385C9.84486 18.6234 10.2873 18.5799 10.6893 18.4133C11.0914 18.2468 11.435 17.9648 11.6768 17.6029C11.9186 17.2411 12.0476 16.8157 12.0476 16.3805L12.0476 16.3804C12.0469 15.7971 11.8149 15.2378 11.4024 14.8254C10.99 14.4129 10.4307 14.1809 9.84745 14.1802ZM9.8472 17.3019C9.66534 17.3019 9.48756 17.2479 9.33634 17.1469C9.1851 17.0458 9.06722 16.9022 8.99761 16.7341C8.928 16.5661 8.90979 16.3812 8.94527 16.2028C8.98076 16.0244 9.06835 15.8605 9.19697 15.7319C9.3256 15.6032 9.48947 15.5156 9.66788 15.4802C9.84628 15.4447 10.0312 15.4629 10.1993 15.5325C10.3673 15.6021 10.5109 15.72 10.612 15.8712C10.713 16.0224 10.767 16.2002 10.767 16.3821C10.7668 16.626 10.6698 16.8598 10.4974 17.0323C10.3249 17.2047 10.0911 17.3017 9.8472 17.3019Z" fill="#7CC700" stroke="#7CC700" stroke-width="0.241166"/>
<path id="Path 13" d="M16.8455 14.1802H16.8453C16.4102 14.1802 15.9848 14.3092 15.6229 14.551C15.2611 14.7928 14.9791 15.1364 14.8125 15.5385C14.646 15.9405 14.6024 16.3829 14.6873 16.8098C14.7722 17.2366 14.9818 17.6286 15.2895 17.9364C15.5972 18.2441 15.9893 18.4536 16.4161 18.5385C16.8429 18.6234 17.2853 18.5799 17.6874 18.4133C18.0894 18.2468 18.4331 17.9648 18.6748 17.6029C18.9166 17.2411 19.0456 16.8157 19.0456 16.3805L19.0456 16.3804C19.0449 15.7971 18.8129 15.2378 18.4005 14.8254C17.988 14.4129 17.4288 14.1809 16.8455 14.1802ZM16.8452 17.3019C16.6634 17.3019 16.4856 17.2479 16.3344 17.1469C16.1831 17.0458 16.0653 16.9022 15.9957 16.7341C15.926 16.5661 15.9078 16.3812 15.9433 16.2028C15.9788 16.0244 16.0664 15.8605 16.195 15.7319C16.3236 15.6032 16.4875 15.5156 16.6659 15.4802C16.8443 15.4447 17.0292 15.4629 17.1973 15.5325C17.3654 15.6021 17.509 15.72 17.61 15.8712C17.7111 16.0224 17.765 16.2002 17.765 16.3821C17.7648 16.626 17.6679 16.8598 17.4954 17.0323C17.323 17.2047 17.0891 17.3017 16.8452 17.3019Z" fill="#7CC700" stroke="#7CC700" stroke-width="0.241166"/>
<path id="Path 14" d="M23.8435 14.1802H23.8434C23.4082 14.1802 22.9828 14.3092 22.621 14.551C22.2591 14.7928 21.9771 15.1364 21.8106 15.5385C21.644 15.9405 21.6005 16.3829 21.6854 16.8098C21.7703 17.2366 21.9798 17.6286 22.2875 17.9364C22.5953 18.2441 22.9873 18.4536 23.4141 18.5385C23.841 18.6234 24.2834 18.5799 24.6854 18.4133C25.0875 18.2468 25.4311 17.9648 25.6729 17.6029C25.9147 17.2411 26.0437 16.8157 26.0437 16.3805L26.0437 16.3804C26.043 15.7971 25.811 15.2378 25.3985 14.8254C24.986 14.4129 24.4268 14.1809 23.8435 14.1802ZM23.8433 17.3019C23.6614 17.3019 23.4837 17.2479 23.3324 17.1469C23.1812 17.0458 23.0633 16.9022 22.9937 16.7341C22.9241 16.5661 22.9059 16.3812 22.9414 16.2028C22.9769 16.0244 23.0644 15.8605 23.1931 15.7319C23.3217 15.6032 23.4856 15.5156 23.664 15.4802C23.8424 15.4447 24.0273 15.4629 24.1953 15.5325C24.3634 15.6021 24.507 15.72 24.6081 15.8712C24.7091 16.0224 24.7631 16.2002 24.7631 16.3821C24.7629 16.626 24.6659 16.8598 24.4935 17.0323C24.321 17.2047 24.0872 17.3017 23.8433 17.3019Z" fill="#7CC700" stroke="#7CC700" stroke-width="0.241166"/>
</g>
</g>
</svg>
